<svg xmlns="http://www.w3.org/2000/svg" viewBox="0 0 123.04 54.05"><defs><style>.cls-1{fill:#003c76;}.cls-2{fill:#fff;}.cls-3{fill:#74c0eb;}.cls-4{fill:#ffcb05;}.cls-5{fill:#be1e2d;}</style></defs><g id="logo"><path class="cls-1" d="M54,27A27,27,0,1,1,27,0,27,27,0,0,1,54,27Z"/><path class="cls-2" d="M53.81,27A26.76,26.76,0,0,0,27.05.23V27Z"/><polygon class="cls-3" points="27.06 0 27.06 27.16 21.11 21.2 27.06 0"/><polygon class="cls-2" points="27.11 27.09 21.15 21.13 0.15 27.14 27.11 27.09"/><polygon class="cls-2" points="27.09 54.05 27.09 27.06 20.96 33.29 27.09 54.05"/><polygon class="cls-3" points="27.09 27.06 21.01 33.39 0.12 27.11 27.09 27.06"/><path class="cls-4" d="M8.15,17.72l-.48,1.19S6.4,19,6.41,19s1,.83,1,.83-.3,1.24-.29,1.22l1.09-.65L9.23,21l-.29-1.2,1-.85s-1.28-.07-1.27-.09S8.15,17.72,8.15,17.72Z"/><path class="cls-4" d="M13,9.41l-.48,1.19s-1.27.1-1.26.08l.95.83s-.3,1.24-.29,1.23S13,12.08,13,12.08l1.07.66-.29-1.21.95-.85s-1.27-.07-1.27-.09S13,9.41,13,9.41Z"/><path class="cls-4" d="M19.62,4.67l-.48,1.18-1.26.09s.95.83.95.83S18.53,8,18.55,8l1.08-.65L20.71,8l-.3-1.2,1-.85s-1.28-.08-1.27-.1S19.62,4.67,19.62,4.67Z"/><path class="cls-4" d="M8.15,32.28l-.48,1.19s-1.27.1-1.26.08,1,.83,1,.83-.3,1.24-.29,1.23S8.16,35,8.16,35l1.07.66L8.94,34.4l1-.85s-1.28-.07-1.27-.09S8.15,32.28,8.15,32.28Z"/><path class="cls-4" d="M13,40.14l-.48,1.19s-1.27.1-1.26.08l.95.83s-.3,1.24-.29,1.23S13,42.81,13,42.81l1.07.66-.29-1.21.95-.85s-1.27-.07-1.27-.09S13,40.14,13,40.14Z"/><path class="cls-4" d="M19.62,44.9l-.48,1.18s-1.26.1-1.26.08.95.83.95.83-.3,1.24-.28,1.23,1.08-.65,1.08-.65l1.08.65L20.41,47l1-.85s-1.28-.07-1.27-.09S19.62,44.9,19.62,44.9Z"/><path class="cls-5" d="M54.08,27a27,27,0,0,1-27,27V27Z"/><path class="cls-1" d="M27,25a3.37,3.37,0,0,0-1.3-.32c-.6,0-.92.26-.92.68s.29.66,1,1c1.05.5,1.65.87,1.65,2s-.86,2.06-2.36,2.06a5.91,5.91,0,0,1-1.69-.28l.11-1.2a3.52,3.52,0,0,0,1.52.4c.62,0,1-.3,1-.78s-.4-.72-1.26-1.16-1.4-.82-1.4-1.84c0-1.23.85-2,2.32-2a5.29,5.29,0,0,1,1.43.22Z"/><path class="cls-1" d="M32.25,23.66v1.11H30v1.59h2.13v1.11H30v1.71h2.36V30.3H28.47V23.66Z"/><path class="cls-1" d="M35.13,23.66c2.4,0,3.54,1,3.54,3.32s-1.22,3.32-3.54,3.32H33.44V23.66ZM35,29.18h.2c1.26,0,1.9-.74,1.9-2.2s-.61-2.21-1.9-2.21H35Z"/><path class="cls-1" d="M41.51,23.66l2,4.84V23.66h1.3V30.3H43.06l-2-4.85V30.3H39.76V23.66Z"/><path class="cls-1" d="M51.43,27c0,2.21-1.08,3.42-2.81,3.42S45.81,29.2,45.81,27s1.08-3.44,2.81-3.44S51.43,24.77,51.43,27Zm-4,0c0,1.51.45,2.3,1.19,2.3s1.2-.79,1.2-2.3-.45-2.32-1.2-2.32S47.43,25.47,47.43,27Z"/></g><g id="nazwa_full" data-name="nazwa full"><path class="cls-1" d="M60.92,13.88h2.27a6,6,0,0,1,4.1,1.22,4.65,4.65,0,0,1,1.38,3.66,4.53,4.53,0,0,1-1.43,3.58,6,6,0,0,1-4.08,1.25H60.92ZM62.28,15v7.49h1.11a3.87,3.87,0,0,0,2.83-1,3.68,3.68,0,0,0,1-2.78,3.7,3.7,0,0,0-1-2.77A3.9,3.9,0,0,0,63.4,15Z"/><path class="cls-1" d="M69.92,13.88h6.31v1.2l-5,7.39h5.13v1.12H69.77V22.32l5-7.35H69.92Z"/><path class="cls-1" d="M78,13.88H79.4v9.71H78Z"/><path class="cls-1" d="M81.81,13.88h5.26v1h-3.9V18h3.69V19.1H83.17v3.37h4v1.12H81.81Z"/><path class="cls-1" d="M89.3,13.88H91l4.23,7.56a4,4,0,0,1,.21.5c.09.23.17.5.27.8-.06-.36-.11-.68-.14-1a7.25,7.25,0,0,1,0-.73V13.88h1.25v9.71H95.11L90.81,16a3.15,3.15,0,0,1-.19-.47,8,8,0,0,1-.26-.84c.06.52.11.92.14,1.2s0,.49,0,.61v7.12H89.3Z"/><path class="cls-1" d="M99.17,13.88h1.71l4.23,7.56a4,4,0,0,1,.21.5c.09.23.18.5.27.8-.06-.36-.11-.68-.14-1a7.25,7.25,0,0,1,0-.73V13.88h1.25v9.71H105L100.68,16a3.15,3.15,0,0,1-.19-.47,8,8,0,0,1-.26-.84c.07.52.11.92.14,1.2s0,.49,0,.61v7.12H99.17Z"/><path class="cls-1" d="M109.05,13.88h1.36v9.71h-1.36Z"/><path class="cls-1" d="M112.81,13.88h1.36v4.27l4-4.27h1.64l-4.37,4.53,4.73,5.18h-1.75l-4.27-4.74v4.74h-1.36Z"/><path class="cls-1" d="M68.87,30.76l-.22,2.06a7.73,7.73,0,0,0-1.47-.5,6.49,6.49,0,0,0-1.44-.16,2.91,2.91,0,0,0-1.63.38,1.23,1.23,0,0,0-.59,1.08c0,.58.71,1.22,2.12,1.93l.31.16a8.38,8.38,0,0,1,2.7,1.9,3.3,3.3,0,0,1,.72,2.14,3.71,3.71,0,0,1-1.4,3,5.51,5.51,0,0,1-3.65,1.16,12.47,12.47,0,0,1-3.13-.67l-.35-.12.24-2.25a14.1,14.1,0,0,0,1.87.78,4.79,4.79,0,0,0,1.37.23,2.72,2.72,0,0,0,1.7-.49,1.46,1.46,0,0,0,.66-1.23c0-.64-.71-1.35-2.12-2.11l-.22-.12-.27-.14a9,9,0,0,1-2.21-1.52,3.41,3.41,0,0,1-.69-1.1,3.53,3.53,0,0,1-.24-1.3,3.28,3.28,0,0,1,1.32-2.71,5.55,5.55,0,0,1,3.51-1,10.34,10.34,0,0,1,2.48.46Z"/><path class="cls-1" d="M71.81,30.41h8V32.3H74.4v3.5h5.17v1.94H74.4V41.6h5.65v2H71.81Z"/><path class="cls-1" d="M82.61,30.41h3.78a15.64,15.64,0,0,1,2.87.23,5.68,5.68,0,0,1,1.95.72,5.75,5.75,0,0,1,2.13,2.31,8,8,0,0,1,0,6.62,5.9,5.9,0,0,1-4.18,3.06,15.58,15.58,0,0,1-3,.24H82.61Zm2.62,2v9.19h1.5a4.21,4.21,0,0,0,4.62-4.62,4.53,4.53,0,0,0-1.21-3.4,4.8,4.8,0,0,0-3.48-1.17Z"/><path class="cls-1" d="M96.3,30.41h3.26l4.85,9.21c.12.26.26.59.41,1s.3.87.46,1.4q-.16-.95-.24-1.71c-.05-.51-.08-1-.08-1.32V30.41h2.36V43.59H104.1l-5-9.42a5.79,5.79,0,0,1-.39-.93q-.19-.57-.39-1.35c.1.77.18,1.43.24,2A11.58,11.58,0,0,1,98.65,35v8.55H96.3Z"/><path class="cls-1" d="M115.9,30.12A5.91,5.91,0,0,1,120.48,32a7.18,7.18,0,0,1,1.67,5,7.21,7.21,0,0,1-1.66,5,6.67,6.67,0,0,1-9.16,0,7.21,7.21,0,0,1-1.66-5A7.22,7.22,0,0,1,111.33,32,5.86,5.86,0,0,1,115.9,30.12Zm0,2a3.1,3.1,0,0,0-2.6,1.33,5.82,5.82,0,0,0-1,3.55,6,6,0,0,0,1,3.57,3.21,3.21,0,0,0,5.23,0,5.85,5.85,0,0,0,1-3.56,5.8,5.8,0,0,0-1-3.54A3.13,3.13,0,0,0,115.9,32.08Z"/></g></svg>