<svg xmlns="http://www.w3.org/2000/svg" width="20.516" height="20" viewBox="0 0 20.516 20">
  <g id="Group_3394" data-name="Group 3394" transform="translate(-723.967 -338)">
    <path id="Path_2789" data-name="Path 2789" d="M19.8,1.2a.63.63,0,0,1,0,.922l-9.339,9.339a.63.63,0,0,1-.922,0L.2,2.124A.63.63,0,0,1,.2,1.2l1-1a.63.63,0,0,1,.922,0L10,8.076,17.876.2A.63.63,0,0,1,18.8.2Z" transform="translate(732.819 358) rotate(-90)" fill="#406aa6"/>
    <path id="Path_2791" data-name="Path 2791" d="M19.8,1.2a.63.63,0,0,1,0,.922l-9.339,9.339a.63.63,0,0,1-.922,0L.2,2.124A.63.63,0,0,1,.2,1.2l1-1a.63.63,0,0,1,.922,0L10,8.076,17.876.2A.63.63,0,0,1,18.8.2Z" transform="translate(723.967 358) rotate(-90)" fill="#406aa6"/>
  </g>
</svg>
