<svg id="Group_3397" data-name="Group 3397" xmlns="http://www.w3.org/2000/svg" width="8.558" height="8.343" viewBox="0 0 8.558 8.343">
  <path id="Path_2789" data-name="Path 2789" d="M8.259.5a.263.263,0,0,1,0,.385l-3.9,3.9a.263.263,0,0,1-.385,0L.084.886A.263.263,0,0,1,.084.5L.5.084a.263.263,0,0,1,.385,0L4.171,3.369,7.457.084a.263.263,0,0,1,.385,0Z" transform="translate(3.693 8.343) rotate(-90)"/>
  <path id="Path_2791" data-name="Path 2791" d="M8.259.5a.263.263,0,0,1,0,.385l-3.9,3.9a.263.263,0,0,1-.385,0L.084.886A.263.263,0,0,1,.084.5L.5.084a.263.263,0,0,1,.385,0L4.171,3.369,7.457.084a.263.263,0,0,1,.385,0Z" transform="translate(0 8.343) rotate(-90)"/>
</svg>
