<?xml version="1.0" encoding="UTF-8" standalone="no"?>
<svg
   xmlns:dc="http://purl.org/dc/elements/1.1/"
   xmlns:cc="http://creativecommons.org/ns#"
   xmlns:rdf="http://www.w3.org/1999/02/22-rdf-syntax-ns#"
   xmlns:svg="http://www.w3.org/2000/svg"
   xmlns="http://www.w3.org/2000/svg"
   id="svg851"
   version="1.1"
   viewBox="0 0 70 70"
   width="70"
   height="70">
  <metadata
     id="metadata857">
    <rdf:RDF>
      <cc:Work
         rdf:about="">
        <dc:format>image/svg+xml</dc:format>
        <dc:type
           rdf:resource="http://purl.org/dc/dcmitype/StillImage" />
        <dc:title></dc:title>
      </cc:Work>
    </rdf:RDF>
  </metadata>
  <defs
     id="defs855" />
  <path
     style="fill:#003c76"
     id="path815"
     d="m 61.96,34.975 a 27,27 0 1 1 -27,-27 27,27 0 0 1 27,27 z" />
  <path
     style="fill:#ffffff"
     id="path817"
     d="M 61.77,34.975 A 26.76,26.76 0 0 0 35.01,8.205 v 26.77 z" />
  <path
     id="polygon819"
     d="m 29.07,29.175 5.95,-21.2 v 27.16 z"
     style="fill:#74c0eb" />
  <path
     id="polygon821"
     d="m 8.11,35.115 26.96,-0.05 -5.96,-5.96 z"
     style="fill:#ffffff" />
  <path
     id="polygon823"
     d="m 28.92,41.265 6.13,20.76 v -26.99 z"
     style="fill:#ffffff" />
  <path
     id="polygon825"
     d="m 8.08,35.085 26.97,-0.05 -6.08,6.33 z"
     style="fill:#74c0eb" />
  <path
     style="fill:#ffcb05"
     id="path827"
     d="m 16.11,25.695 -0.48,1.19 c 0,0 -1.27,0.09 -1.26,0.09 0.01,0 1,0.83 1,0.83 0,0 -0.3,1.24 -0.29,1.22 l 1.09,-0.65 1.02,0.6 -0.29,-1.2 1,-0.85 c 0,0 -1.28,-0.07 -1.27,-0.09 0.01,-0.02 -0.52,-1.14 -0.52,-1.14 z" />
  <path
     style="fill:#ffcb05"
     id="path829"
     d="m 20.96,17.385 -0.48,1.19 c 0,0 -1.27,0.1 -1.26,0.08 l 0.95,0.83 c 0,0 -0.3,1.24 -0.29,1.23 0.01,-0.01 1.08,-0.66 1.08,-0.66 l 1.07,0.66 -0.29,-1.21 0.95,-0.85 c 0,0 -1.27,-0.07 -1.27,-0.09 0,-0.02 -0.46,-1.18 -0.46,-1.18 z" />
  <path
     style="fill:#ffcb05"
     id="path831"
     d="m 27.58,12.645 -0.48,1.18 -1.26,0.09 c 0,0 0.95,0.83 0.95,0.83 0,0 -0.3,1.23 -0.28,1.23 l 1.08,-0.65 1.08,0.65 -0.3,-1.2 1,-0.85 c 0,0 -1.28,-0.08 -1.27,-0.1 0.01,-0.02 -0.52,-1.18 -0.52,-1.18 z" />
  <path
     style="fill:#ffcb05"
     id="path833"
     d="m 16.11,40.255 -0.48,1.19 c 0,0 -1.27,0.1 -1.26,0.08 0.01,-0.02 1,0.83 1,0.83 0,0 -0.3,1.24 -0.29,1.23 0.01,-0.01 1.04,-0.61 1.04,-0.61 l 1.07,0.66 -0.29,-1.26 1,-0.85 c 0,0 -1.28,-0.07 -1.27,-0.09 0.01,-0.02 -0.52,-1.18 -0.52,-1.18 z" />
  <path
     style="fill:#ffcb05"
     id="path835"
     d="m 20.96,48.115 -0.48,1.19 c 0,0 -1.27,0.1 -1.26,0.08 l 0.95,0.83 c 0,0 -0.3,1.24 -0.29,1.23 0.01,-0.01 1.08,-0.66 1.08,-0.66 l 1.07,0.66 -0.29,-1.21 0.95,-0.85 c 0,0 -1.27,-0.07 -1.27,-0.09 0,-0.02 -0.46,-1.18 -0.46,-1.18 z" />
  <path
     style="fill:#ffcb05"
     id="path837"
     d="m 27.58,52.875 -0.48,1.18 c 0,0 -1.26,0.1 -1.26,0.08 0,-0.02 0.95,0.83 0.95,0.83 0,0 -0.3,1.24 -0.28,1.23 0.02,-0.01 1.08,-0.65 1.08,-0.65 l 1.08,0.65 -0.3,-1.22 1,-0.85 c 0,0 -1.28,-0.07 -1.27,-0.09 0.01,-0.02 -0.52,-1.16 -0.52,-1.16 z" />
  <path
     style="fill:#be1e2d"
     id="path839"
     d="m 62.04,34.975 a 27,27 0 0 1 -27,27 v -27 z" />
  <path
     style="fill:#003c76"
     id="path841"
     d="m 34.96,32.975 a 3.37,3.37 0 0 0 -1.3,-0.32 c -0.6,0 -0.92,0.26 -0.92,0.68 0,0.42 0.29,0.66 1,1 1.05,0.5 1.65,0.87 1.65,2 0,1.13 -0.86,2.06 -2.36,2.06 a 5.91,5.91 0 0 1 -1.69,-0.28 l 0.11,-1.2 a 3.52,3.52 0 0 0 1.52,0.4 c 0.62,0 1,-0.3 1,-0.78 0,-0.48 -0.4,-0.72 -1.26,-1.16 -0.86,-0.44 -1.4,-0.82 -1.4,-1.84 0,-1.23 0.85,-2 2.32,-2 a 5.29,5.29 0 0 1 1.43,0.22 z" />
  <path
     style="fill:#003c76"
     id="path843"
     d="m 40.21,31.635 v 1.11 h -2.25 v 1.59 h 2.13 v 1.11 h -2.13 v 1.71 h 2.36 v 1.12 h -3.89 v -6.64 z" />
  <path
     style="fill:#003c76"
     id="path845"
     d="m 43.09,31.635 c 2.4,0 3.54,1 3.54,3.32 0,2.32 -1.22,3.32 -3.54,3.32 H 41.4 v -6.64 z m -0.13,5.52 h 0.2 c 1.26,0 1.9,-0.74 1.9,-2.2 0,-1.46 -0.61,-2.21 -1.9,-2.21 h -0.2 z" />
  <path
     style="fill:#003c76"
     id="path847"
     d="m 49.47,31.635 2,4.84 v -4.84 h 1.3 v 6.64 h -1.75 l -2,-4.85 v 4.85 h -1.3 v -6.64 z" />
  <path
     style="fill:#003c76"
     id="path849"
     d="m 59.39,34.975 c 0,2.21 -1.08,3.42 -2.81,3.42 -1.73,0 -2.81,-1.22 -2.81,-3.42 0,-2.2 1.08,-3.44 2.81,-3.44 1.73,0 2.81,1.21 2.81,3.44 z m -4,0 c 0,1.51 0.45,2.3 1.19,2.3 0.74,0 1.2,-0.79 1.2,-2.3 0,-1.51 -0.45,-2.32 -1.2,-2.32 -0.75,0 -1.19,0.79 -1.19,2.32 z" />
</svg>
